PathFileType	4	(X/Y/Z)	C:\Data\4407\4407cd01.trc
DataRate	CameraRate	NumFrames	NumMarkers	Units	OrigDataRate	OrigDataStartFrame	OrigNumFrames
200.00	200.00	       11	33	mm	200.00	282	       451
Frame#	Time	Offset			RShoulder			RUpperArm			RElbow			RForearm			RWrist			LShoulder			LUpperArm			LElbow			LForearm			LWrist			LPSIS			RPSIS			RASIS			RThigh			RKnee			RShank			RAnkle			RHeel			RLat5			RToe			LASIS			LThigh			LKnee			LShank			LAnkle			LHeel			LLat5			LToe			RMed.Knee			LMed.Knee			RMed.Ankle			LMed.Ankle			
		X1	Y1	Z1	X2	Y2	Z2	X3	Y3	Z3	X4	Y4	Z4	X5	Y5	Z5	X6	Y6	Z6	X7	Y7	Z7	X8	Y8	Z8	X9	Y9	Z9	X10	Y10	Z10	X11	Y11	Z11	X12	Y12	Z12	X13	Y13	Z13	X14	Y14	Z14	X15	Y15	Z15	X16	Y16	Z16	X17	Y17	Z17	X18	Y18	Z18	X19	Y19	Z19	X20	Y20	Z20	X21	Y21	Z21	X22	Y22	Z22	X23	Y23	Z23	X24	Y24	Z24	X25	Y25	Z25	X26	Y26	Z26	X27	Y27	Z27	X28	Y28	Z28	X29	Y29	Z29	X30	Y30	Z30	X31	Y31	Z31	X32	Y32	Z32	X33	Y33	Z33	

282	1.405	328.19653	-308.21362	1395.76636	416.79431	-208.60054	1539.14636	538.20728	-273.34555	1403.57092	703.48816	-265.74783	1405.39856	846.03436	-251.28848	1325.93994	964.67499	-193.69017	1379.99963	129.10464	-216.12405	1541.33289	-7.53225	-283.97446	1387.95166	-138.71506	-287.89325	1397.01941	-279.87341	-278.09671	1327.05896	-422.08286	-208.05421	1345.25659	251.67105	-312.64630	1031.22131	301.17343	-312.15845	1033.32031	396.89810	-98.20260	1019.32007	370.46011	-102.46870	691.89093	452.40970	-202.29936	520.24957	420.33081	-173.75648	444.32571	462.50522	-247.43646	110.85540	417.81750	-303.44437	75.83308	515.99445	-108.19263	62.17961	410.54834	-92.34409	57.40205	143.06297	-104.28844	997.90173	147.41339	-112.49433	663.55023	98.85155	-205.86401	519.15570	132.18417	-178.37428	444.15530	93.17532	-267.00269	110.91960	145.63538	-319.04352	80.83186	41.48503	-122.03719	57.83657	150.32721	-105.31219	49.10351	342.37491	-197.25204	501.21170	202.29907	-193.09549	480.87793	376.37161	-207.97546	121.34926	178.83815	-222.44885	116.49300	
283	1.410	328.24460	-308.21393	1395.72192	416.77600	-208.64967	1539.14160	538.23914	-273.34952	1403.53308	703.52905	-265.71365	1405.36914	845.92535	-251.28091	1325.99133	964.73187	-193.60397	1380.04785	129.12161	-216.16678	1541.33936	-7.54198	-284.08612	1387.91492	-138.69467	-287.91733	1397.00452	-279.89435	-278.10211	1327.06653	-422.13458	-208.01056	1345.32507	251.62790	-312.63940	1031.23779	301.20590	-312.14346	1033.33167	396.91595	-98.24265	1019.30664	370.48642	-102.40255	691.82690	452.33920	-202.27367	520.27686	420.21222	-173.80981	444.39261	462.54446	-247.42328	110.83208	417.81689	-303.52469	75.86865	515.95984	-108.16692	62.17933	410.50797	-92.38084	57.42215	143.07735	-104.31042	997.91364	147.40736	-112.36994	663.57373	98.87159	-205.83986	519.13605	132.10652	-178.41573	444.15344	93.15096	-267.07587	111.04690	145.68826	-318.99875	80.76642	41.49744	-122.00719	57.87179	150.39966	-105.21486	49.12422	342.36252	-197.20317	501.22464	202.30966	-193.08073	480.88434	376.43430	-207.98160	121.38580	178.95465	-222.40091	116.61783	
284	1.415	328.22913	-308.24222	1395.74548	416.76086	-208.70195	1539.18433	538.19928	-273.35876	1403.46765	703.52386	-265.72842	1405.39111	846.08752	-251.17010	1326.02136	964.66010	-193.54439	1380.11804	129.10504	-216.21228	1541.34448	-7.51611	-284.10831	1387.91663	-138.70644	-288.02328	1397.03357	-279.84674	-278.18356	1327.08325	-422.08191	-208.15074	1345.32104	251.66406	-312.58023	1031.21252	301.17798	-312.18835	1033.22412	396.89807	-98.24400	1019.33453	370.45563	-102.46830	691.88599	452.33804	-202.32965	520.25232	420.25638	-173.79749	444.35522	462.54309	-247.35162	110.84673	417.83002	-303.49103	75.86228	515.91949	-108.15325	62.21670	410.46561	-92.34572	57.36058	143.06383	-104.30750	997.90997	147.28752	-112.66302	663.53003	98.92162	-205.86562	519.15045	132.23389	-178.37674	444.13553	93.20783	-267.00208	110.90337	145.68111	-319.00534	80.77122	41.54184	-121.98428	57.84829	150.39076	-105.24575	49.10556	342.24786	-197.40297	501.20483	202.29726	-193.05830	480.85251	376.42584	-207.98851	121.36671	178.88512	-222.42419	116.56950	
285	1.420	328.27744	-308.25644	1395.69177	416.68561	-208.82050	1539.14087	538.23230	-273.31207	1403.45837	703.62659	-265.76157	1405.42896	846.09869	-251.12888	1326.05151	964.75848	-193.44081	1380.22180	129.12064	-216.25711	1541.34058	-7.50653	-284.18201	1387.95532	-138.67339	-288.05673	1397.07141	-279.87524	-278.19025	1327.10107	-422.09177	-208.19838	1345.35876	251.60721	-312.62311	1031.19861	301.14056	-312.14288	1033.15686	396.89484	-98.25432	1019.31946	370.45984	-102.51711	691.86865	452.46185	-202.35202	520.29169	420.25677	-173.78702	444.31998	462.52911	-247.43117	110.84069	417.83112	-303.48767	75.89740	515.95697	-108.21508	62.17452	410.47205	-92.30366	57.42112	143.07784	-104.32268	997.92194	147.39058	-112.67253	663.37189	98.91467	-205.85460	519.15479	132.18762	-178.34721	444.16177	93.16232	-267.08255	111.07597	145.73430	-318.99475	80.71683	41.57792	-121.97926	57.86943	150.34499	-105.26985	49.14813	342.30215	-197.33231	501.18719	202.28165	-193.04118	480.85880	376.43381	-207.98634	121.36443	178.88783	-222.42435	116.55956	
286	1.425	328.23666	-308.34824	1395.68359	416.73846	-208.84180	1539.12402	538.26453	-273.29227	1403.42603	703.60492	-265.82932	1405.46362	846.10699	-251.13916	1326.08508	964.74451	-193.46188	1380.29968	129.12567	-216.31668	1541.32996	-7.49084	-284.23148	1387.95740	-138.74631	-288.15567	1397.06995	-279.84915	-278.19965	1327.09143	-422.10068	-208.29855	1345.41455	251.61586	-312.61444	1031.20825	301.15646	-312.15341	1033.20313	397.00229	-98.31311	1019.31104	370.46368	-102.37955	691.90643	452.41232	-202.38118	520.31079	420.30389	-173.77745	444.36908	462.48468	-247.43456	110.86930	417.83047	-303.50479	75.88161	515.93726	-108.17496	62.18686	410.46582	-92.35091	57.32501	143.06798	-104.32159	997.91711	147.40308	-112.51301	663.56049	98.89222	-205.87450	519.17017	132.17451	-178.38556	444.12729	93.12489	-267.11163	111.05137	145.66406	-319.03876	80.81231	41.49611	-122.00948	57.86200	150.37701	-105.25129	49.09100	342.38910	-197.24164	501.21378	202.30716	-192.93034	480.82874	376.40891	-207.94666	121.35739	178.86401	-222.57016	116.52753	
287	1.430	328.26593	-308.36563	1395.63440	416.74365	-208.84088	1539.12048	538.26489	-273.24951	1403.41284	703.64966	-265.81348	1405.46301	846.13837	-251.09055	1326.14014	964.81964	-193.38997	1380.40173	129.11577	-216.35947	1541.35034	-7.48037	-284.25565	1387.94739	-138.69031	-288.19827	1397.13989	-279.85931	-278.20844	1327.10449	-422.09943	-208.34494	1345.44080	251.59009	-312.57800	1031.22351	301.15771	-312.15765	1033.16650	396.98593	-98.27394	1019.32202	370.47260	-102.39451	691.90674	452.45276	-202.33577	520.31775	420.26437	-173.77054	444.32077	462.78760	-247.47787	110.83493	417.80804	-303.49786	75.86121	515.99084	-108.20043	62.17735	410.49045	-92.36454	57.37061	143.07147	-104.31692	997.91779	147.39479	-112.58059	663.56189	98.84617	-205.86409	519.16199	132.18840	-178.31630	444.15714	93.15221	-267.11407	111.08094	145.78981	-318.95499	80.76619	41.50785	-121.99079	57.86803	150.33702	-105.31992	49.23046	342.36844	-197.18903	501.21259	202.27274	-192.93507	480.84213	376.45151	-207.94064	121.34624	178.87566	-222.48834	116.54835	
288	1.435	328.20239	-308.39471	1395.59460	416.75195	-208.89999	1539.13293	538.35962	-273.26126	1403.38306	703.70856	-265.79831	1405.50354	846.15930	-251.08482	1326.18628	964.82971	-193.28706	1380.42749	129.15413	-216.42940	1541.32678	-7.45204	-284.22278	1387.96411	-138.67204	-288.21408	1397.14453	-279.85291	-278.28781	1327.08752	-422.09216	-208.36778	1345.51440	251.59789	-312.63275	1031.15381	301.11963	-312.19641	1033.20129	396.93784	-98.26435	1019.31653	370.44949	-102.36546	691.90289	452.31589	-202.30283	520.31665	420.27499	-173.90588	444.30539	462.48779	-247.43063	110.86800	417.85278	-303.41708	75.84714	515.95178	-108.13657	62.19647	410.51190	-92.35255	57.34166	143.07295	-104.29290	997.89563	147.40019	-112.57631	663.55585	98.89745	-205.85689	519.14618	132.24170	-178.35219	444.13016	93.14482	-267.09293	111.07404	145.68420	-318.98157	80.77572	41.48749	-122.04196	57.84898	150.32455	-105.33304	49.10326	342.42633	-197.27191	501.20480	202.27275	-192.90631	480.84412	376.39655	-207.92519	121.32487	178.80777	-222.40019	116.54577	
289	1.440	328.27365	-308.42026	1395.69824	416.76086	-208.94926	1539.15686	538.32959	-273.23083	1403.36914	703.67529	-265.84219	1405.55200	846.17279	-251.08604	1326.20007	964.95032	-193.15131	1380.53381	129.19464	-216.42685	1541.35034	-7.43289	-284.29361	1387.93921	-138.69325	-288.24799	1397.14478	-279.75595	-278.30878	1327.21667	-422.09894	-208.46664	1345.48071	251.66913	-312.60156	1031.14514	301.20602	-312.05252	1033.23828	396.95349	-98.28578	1019.33527	370.47217	-102.37218	691.87341	452.26309	-202.30618	520.36743	420.25562	-173.78812	444.36435	462.52386	-247.40016	110.85008	417.81204	-303.47797	75.88716	515.92493	-108.21353	62.19798	410.41681	-92.36794	57.43993	143.07777	-104.29232	997.97821	147.39682	-112.53421	663.56543	98.87553	-205.81862	519.14825	132.14372	-178.40970	444.16165	93.13120	-267.10944	111.05711	145.72632	-318.98907	80.79756	41.52603	-122.00718	57.87758	150.35251	-105.28685	49.08712	342.34567	-197.25496	501.21301	202.25742	-192.94261	480.84146	376.50375	-207.93456	121.33302	178.88248	-222.43883	116.55309	
290	1.445	328.22519	-308.45306	1395.63416	416.76169	-208.95917	1539.08765	538.36444	-273.20523	1403.35632	703.75415	-265.81979	1405.61133	846.19305	-251.07553	1326.22363	964.98340	-193.06021	1380.64050	129.19357	-216.49605	1541.34583	-7.40510	-284.36075	1387.99573	-138.64001	-288.26035	1397.17163	-279.76956	-278.45517	1327.23364	-422.05600	-208.48929	1345.62183	251.60684	-312.64240	1031.17896	301.14752	-312.20300	1033.15454	396.90701	-98.27335	1019.32520	370.50858	-102.41875	691.82776	452.26498	-202.15858	520.26099	420.27026	-173.79657	444.36285	462.52808	-247.37437	110.85226	417.84586	-303.44086	75.88129	515.91229	-108.24622	62.18433	410.49408	-92.32935	57.40675	143.05850	-104.29886	997.93726	147.38348	-112.59812	663.57349	98.84370	-205.80736	519.15326	132.19205	-178.34122	444.14639	93.12975	-267.11780	111.06485	145.76605	-318.97018	80.83700	41.50032	-122.03223	57.85352	150.39034	-105.26683	49.06186	342.31631	-197.20712	501.20810	202.28386	-192.97795	480.90466	376.47949	-207.99098	121.38996	178.90224	-222.40721	116.56010	
291	1.450	328.31073	-308.44531	1395.67139	416.79111	-208.98222	1539.09485	538.43695	-273.24835	1403.38318	703.76965	-265.82529	1405.60242	846.20142	-251.06723	1326.23364	964.99182	-193.02545	1380.72571	129.14920	-216.56763	1541.35767	-7.40625	-284.36548	1388.00830	-138.66649	-288.32022	1397.18542	-279.87292	-278.51013	1327.17102	-422.06555	-208.51959	1345.70239	251.62640	-312.58264	1031.18262	301.15042	-312.06430	1033.23340	396.83612	-98.20939	1019.34216	370.44763	-102.33096	691.89252	452.42688	-202.21718	520.28400	420.28259	-173.79445	444.37741	462.53122	-247.44292	110.83704	417.81506	-303.51242	75.88560	515.93781	-108.17738	62.18659	410.52756	-92.35130	57.45687	143.06189	-104.30518	997.94464	147.39337	-112.53978	663.56891	98.88036	-205.79810	519.15991	132.15184	-178.36182	444.13589	93.15185	-267.13730	111.04024	145.73669	-319.01300	80.81413	41.55241	-122.00297	57.84768	150.38779	-105.33334	49.03914	342.38861	-197.17441	501.21643	202.29324	-192.88673	480.83459	376.38553	-207.96840	121.38181	178.94144	-222.45615	116.61609	
292	1.455	328.29617	-308.48941	1395.64417	416.75494	-209.05843	1539.12207	538.41614	-273.27188	1403.40881	703.84253	-265.76132	1405.63818	846.21136	-250.99300	1326.28345	965.00287	-192.96167	1380.83008	129.16119	-216.56787	1541.33105	-7.45263	-284.49512	1388.04370	-138.62398	-288.42648	1397.23621	-279.81882	-278.46472	1327.28430	-422.08386	-208.58527	1345.74182	251.56915	-312.55688	1031.20874	301.18970	-312.12976	1033.27124	396.91263	-98.28716	1019.42218	370.45349	-102.33612	691.87946	452.28766	-202.23761	520.29010	420.32544	-173.73479	444.38995	462.48721	-247.43538	110.86748	417.81613	-303.54202	75.94360	515.97162	-108.14295	62.13574	410.48788	-92.37774	57.36888	143.06108	-104.31384	997.93402	147.40530	-112.54697	663.55334	98.97935	-205.70508	519.15295	132.14465	-178.36551	444.12766	93.16170	-267.09088	111.06520	145.72318	-319.00055	80.82334	41.45670	-122.06911	57.84691	150.32855	-105.25074	49.15439	342.37012	-197.12825	501.19431	202.28406	-192.85530	480.86664	376.47040	-207.87215	121.37343	178.87567	-222.45343	116.54836	
